<mxfile host="app.diagrams.net" agent="Mozilla/5.0 (Windows NT 10.0; Win64; x64) AppleWebKit/537.36 (KHTML, like Gecko) Chrome/131.0.0.0 Safari/537.36" version="25.0.3">
  <diagram name="Page-1" id="9jJPjfJ8PGhLk4FIcnr4">
    <mxGraphModel dx="910" dy="490" grid="1" gridSize="10" guides="1" tooltips="1" connect="1" arrows="1" fold="1" page="1" pageScale="1" pageWidth="827" pageHeight="1169" math="0" shadow="0">
      <root>
        <mxCell id="0" />
        <mxCell id="1" parent="0" />
        <mxCell id="QfcRt_3EZH4ZvAUpnSrQ-1" value="Dungeon And Wishes" style="ellipse;whiteSpace=wrap;html=1;" vertex="1" parent="1">
          <mxGeometry x="470" y="130" width="156" height="100" as="geometry" />
        </mxCell>
        <mxCell id="QfcRt_3EZH4ZvAUpnSrQ-2" value="Player" style="rounded=0;whiteSpace=wrap;html=1;" vertex="1" parent="1">
          <mxGeometry x="80" y="160" width="80" height="40" as="geometry" />
        </mxCell>
        <mxCell id="QfcRt_3EZH4ZvAUpnSrQ-3" value="" style="endArrow=classic;html=1;rounded=0;entryX=0;entryY=0.5;entryDx=0;entryDy=0;" edge="1" parent="1" target="QfcRt_3EZH4ZvAUpnSrQ-1">
          <mxGeometry width="50" height="50" relative="1" as="geometry">
            <mxPoint x="160" y="180" as="sourcePoint" />
            <mxPoint x="210" y="130" as="targetPoint" />
          </mxGeometry>
        </mxCell>
        <mxCell id="QfcRt_3EZH4ZvAUpnSrQ-6" value="&lt;font style=&quot;font-size: 9px;&quot;&gt;Input Details&lt;/font&gt;" style="text;html=1;align=center;verticalAlign=middle;resizable=0;points=[];autosize=1;strokeColor=none;fillColor=none;" vertex="1" parent="1">
          <mxGeometry x="270" y="160" width="70" height="30" as="geometry" />
        </mxCell>
        <mxCell id="QfcRt_3EZH4ZvAUpnSrQ-7" value="&lt;font style=&quot;font-size: 9px;&quot;&gt;Player Details&lt;/font&gt;" style="text;html=1;align=center;verticalAlign=middle;resizable=0;points=[];autosize=1;strokeColor=none;fillColor=none;" vertex="1" parent="1">
          <mxGeometry x="265" y="200" width="80" height="30" as="geometry" />
        </mxCell>
        <mxCell id="QfcRt_3EZH4ZvAUpnSrQ-8" value="&lt;font style=&quot;font-size: 9px;&quot;&gt;World Details&lt;/font&gt;" style="text;html=1;align=center;verticalAlign=middle;resizable=0;points=[];autosize=1;strokeColor=none;fillColor=none;" vertex="1" parent="1">
          <mxGeometry x="265" y="180" width="80" height="30" as="geometry" />
        </mxCell>
        <mxCell id="QfcRt_3EZH4ZvAUpnSrQ-9" value="" style="endArrow=classic;html=1;rounded=0;entryX=1;entryY=0.75;entryDx=0;entryDy=0;exitX=0.037;exitY=0.686;exitDx=0;exitDy=0;exitPerimeter=0;" edge="1" parent="1" source="QfcRt_3EZH4ZvAUpnSrQ-1">
          <mxGeometry width="50" height="50" relative="1" as="geometry">
            <mxPoint x="324.5" y="200" as="sourcePoint" />
            <mxPoint x="160" y="200" as="targetPoint" />
          </mxGeometry>
        </mxCell>
        <mxCell id="QfcRt_3EZH4ZvAUpnSrQ-10" value="" style="endArrow=classic;html=1;rounded=0;entryX=0.75;entryY=1;entryDx=0;entryDy=0;exitX=0.18;exitY=0.883;exitDx=0;exitDy=0;exitPerimeter=0;" edge="1" parent="1" source="QfcRt_3EZH4ZvAUpnSrQ-1" target="QfcRt_3EZH4ZvAUpnSrQ-2">
          <mxGeometry width="50" height="50" relative="1" as="geometry">
            <mxPoint x="500" y="219" as="sourcePoint" />
            <mxPoint x="147" y="221" as="targetPoint" />
            <Array as="points">
              <mxPoint x="140" y="220" />
            </Array>
          </mxGeometry>
        </mxCell>
        <mxCell id="QfcRt_3EZH4ZvAUpnSrQ-11" value="&lt;font style=&quot;font-size: 9px;&quot;&gt;Exit Details&lt;/font&gt;" style="text;html=1;align=center;verticalAlign=middle;resizable=0;points=[];autosize=1;strokeColor=none;fillColor=none;rotation=0;" vertex="1" parent="1">
          <mxGeometry x="265" y="140" width="70" height="30" as="geometry" />
        </mxCell>
        <mxCell id="QfcRt_3EZH4ZvAUpnSrQ-12" value="" style="endArrow=classic;html=1;rounded=0;entryX=1;entryY=0.75;entryDx=0;entryDy=0;exitX=0.037;exitY=0.686;exitDx=0;exitDy=0;exitPerimeter=0;" edge="1" parent="1">
          <mxGeometry width="50" height="50" relative="1" as="geometry">
            <mxPoint x="476" y="160" as="sourcePoint" />
            <mxPoint x="160" y="161" as="targetPoint" />
          </mxGeometry>
        </mxCell>
        <mxCell id="QfcRt_3EZH4ZvAUpnSrQ-13" value="&lt;font style=&quot;font-size: 9px;&quot;&gt;System Details&lt;/font&gt;" style="text;html=1;align=center;verticalAlign=middle;resizable=0;points=[];autosize=1;strokeColor=none;fillColor=none;rotation=0;" vertex="1" parent="1">
          <mxGeometry x="265" y="120" width="80" height="30" as="geometry" />
        </mxCell>
        <mxCell id="QfcRt_3EZH4ZvAUpnSrQ-14" value="" style="endArrow=classic;html=1;rounded=0;entryX=0.75;entryY=0;entryDx=0;entryDy=0;exitX=0.187;exitY=0.109;exitDx=0;exitDy=0;exitPerimeter=0;" edge="1" parent="1" source="QfcRt_3EZH4ZvAUpnSrQ-1" target="QfcRt_3EZH4ZvAUpnSrQ-2">
          <mxGeometry width="50" height="50" relative="1" as="geometry">
            <mxPoint x="498" y="138" as="sourcePoint" />
            <mxPoint x="140" y="120" as="targetPoint" />
            <Array as="points">
              <mxPoint x="140" y="140" />
            </Array>
          </mxGeometry>
        </mxCell>
        <mxCell id="QfcRt_3EZH4ZvAUpnSrQ-15" value="" style="endArrow=classic;html=1;rounded=0;entryX=0.75;entryY=0;entryDx=0;entryDy=0;exitX=0.515;exitY=0.004;exitDx=0;exitDy=0;exitPerimeter=0;" edge="1" parent="1" source="QfcRt_3EZH4ZvAUpnSrQ-1">
          <mxGeometry width="50" height="50" relative="1" as="geometry">
            <mxPoint x="550" y="120" as="sourcePoint" />
            <mxPoint x="120.5" y="160" as="targetPoint" />
            <Array as="points">
              <mxPoint x="550" y="120" />
              <mxPoint x="121" y="120" />
            </Array>
          </mxGeometry>
        </mxCell>
        <mxCell id="QfcRt_3EZH4ZvAUpnSrQ-16" value="&lt;font style=&quot;font-size: 9px;&quot;&gt;Party Details&lt;/font&gt;" style="text;html=1;align=center;verticalAlign=middle;resizable=0;points=[];autosize=1;strokeColor=none;fillColor=none;rotation=0;" vertex="1" parent="1">
          <mxGeometry x="270" y="100" width="70" height="30" as="geometry" />
        </mxCell>
        <mxCell id="QfcRt_3EZH4ZvAUpnSrQ-17" value="" style="endArrow=classic;html=1;rounded=0;entryX=0.5;entryY=1;entryDx=0;entryDy=0;exitX=0.5;exitY=1;exitDx=0;exitDy=0;" edge="1" parent="1" source="QfcRt_3EZH4ZvAUpnSrQ-1" target="QfcRt_3EZH4ZvAUpnSrQ-2">
          <mxGeometry width="50" height="50" relative="1" as="geometry">
            <mxPoint x="549.5" y="250" as="sourcePoint" />
            <mxPoint x="120" y="280" as="targetPoint" />
            <Array as="points">
              <mxPoint x="548" y="240" />
              <mxPoint x="120" y="240" />
            </Array>
          </mxGeometry>
        </mxCell>
        <mxCell id="QfcRt_3EZH4ZvAUpnSrQ-18" value="&lt;font style=&quot;font-size: 9px;&quot;&gt;Environment Details&lt;/font&gt;" style="text;html=1;align=center;verticalAlign=middle;resizable=0;points=[];autosize=1;strokeColor=none;fillColor=none;rotation=0;" vertex="1" parent="1">
          <mxGeometry x="255" y="220" width="100" height="30" as="geometry" />
        </mxCell>
        <mxCell id="QfcRt_3EZH4ZvAUpnSrQ-19" value="" style="endArrow=classic;html=1;rounded=0;entryX=0.25;entryY=1;entryDx=0;entryDy=0;exitX=0.641;exitY=0.978;exitDx=0;exitDy=0;exitPerimeter=0;" edge="1" parent="1" source="QfcRt_3EZH4ZvAUpnSrQ-1" target="QfcRt_3EZH4ZvAUpnSrQ-2">
          <mxGeometry width="50" height="50" relative="1" as="geometry">
            <mxPoint x="558" y="245" as="sourcePoint" />
            <mxPoint x="130" y="215" as="targetPoint" />
            <Array as="points">
              <mxPoint x="570" y="260" />
              <mxPoint x="100" y="260" />
            </Array>
          </mxGeometry>
        </mxCell>
        <mxCell id="QfcRt_3EZH4ZvAUpnSrQ-20" value="&lt;font style=&quot;font-size: 9px;&quot;&gt;Show Dialouge&lt;/font&gt;" style="text;html=1;align=center;verticalAlign=middle;resizable=0;points=[];autosize=1;strokeColor=none;fillColor=none;rotation=0;" vertex="1" parent="1">
          <mxGeometry x="267" y="239" width="80" height="30" as="geometry" />
        </mxCell>
        <mxCell id="QfcRt_3EZH4ZvAUpnSrQ-21" value="" style="endArrow=classic;html=1;rounded=0;entryX=0.75;entryY=0;entryDx=0;entryDy=0;exitX=0.641;exitY=0.023;exitDx=0;exitDy=0;exitPerimeter=0;" edge="1" parent="1" source="QfcRt_3EZH4ZvAUpnSrQ-1">
          <mxGeometry width="50" height="50" relative="1" as="geometry">
            <mxPoint x="570" y="130" as="sourcePoint" />
            <mxPoint x="100" y="160" as="targetPoint" />
            <Array as="points">
              <mxPoint x="570" y="100" />
              <mxPoint x="100" y="100" />
            </Array>
          </mxGeometry>
        </mxCell>
        <mxCell id="QfcRt_3EZH4ZvAUpnSrQ-22" value="&lt;font style=&quot;font-size: 9px;&quot;&gt;Skill Details&lt;/font&gt;" style="text;html=1;align=center;verticalAlign=middle;resizable=0;points=[];autosize=1;strokeColor=none;fillColor=none;rotation=0;" vertex="1" parent="1">
          <mxGeometry x="270" y="80" width="70" height="30" as="geometry" />
        </mxCell>
        <mxCell id="QfcRt_3EZH4ZvAUpnSrQ-23" value="" style="endArrow=classic;html=1;rounded=0;entryX=0.769;entryY=0.068;entryDx=0;entryDy=0;exitX=0;exitY=0;exitDx=0;exitDy=0;entryPerimeter=0;" edge="1" parent="1" source="QfcRt_3EZH4ZvAUpnSrQ-2" target="QfcRt_3EZH4ZvAUpnSrQ-1">
          <mxGeometry width="50" height="50" relative="1" as="geometry">
            <mxPoint x="130" y="70" as="sourcePoint" />
            <mxPoint x="440" y="70" as="targetPoint" />
            <Array as="points">
              <mxPoint x="80" y="80" />
              <mxPoint x="590" y="80" />
            </Array>
          </mxGeometry>
        </mxCell>
        <mxCell id="QfcRt_3EZH4ZvAUpnSrQ-24" value="&lt;font style=&quot;font-size: 9px;&quot;&gt;Selection Details&lt;/font&gt;" style="text;html=1;align=center;verticalAlign=middle;resizable=0;points=[];autosize=1;strokeColor=none;fillColor=none;rotation=0;" vertex="1" parent="1">
          <mxGeometry x="260" y="60" width="90" height="30" as="geometry" />
        </mxCell>
        <mxCell id="QfcRt_3EZH4ZvAUpnSrQ-26" value="" style="endArrow=classic;html=1;rounded=0;entryX=0.762;entryY=0.926;entryDx=0;entryDy=0;exitX=0;exitY=1;exitDx=0;exitDy=0;entryPerimeter=0;" edge="1" parent="1" source="QfcRt_3EZH4ZvAUpnSrQ-2" target="QfcRt_3EZH4ZvAUpnSrQ-1">
          <mxGeometry width="50" height="50" relative="1" as="geometry">
            <mxPoint x="80" y="360" as="sourcePoint" />
            <mxPoint x="587" y="337" as="targetPoint" />
            <Array as="points">
              <mxPoint x="80" y="280" />
              <mxPoint x="590" y="280" />
            </Array>
          </mxGeometry>
        </mxCell>
        <mxCell id="QfcRt_3EZH4ZvAUpnSrQ-27" value="&lt;font style=&quot;font-size: 9px;&quot;&gt;Player Choice&lt;/font&gt;" style="text;html=1;align=center;verticalAlign=middle;resizable=0;points=[];autosize=1;strokeColor=none;fillColor=none;rotation=0;" vertex="1" parent="1">
          <mxGeometry x="267" y="260" width="80" height="30" as="geometry" />
        </mxCell>
        <mxCell id="QfcRt_3EZH4ZvAUpnSrQ-28" value="" style="endArrow=classic;html=1;rounded=0;entryX=0;entryY=0.25;entryDx=0;entryDy=0;exitX=0.894;exitY=0.191;exitDx=0;exitDy=0;exitPerimeter=0;" edge="1" parent="1" source="QfcRt_3EZH4ZvAUpnSrQ-1" target="QfcRt_3EZH4ZvAUpnSrQ-2">
          <mxGeometry width="50" height="50" relative="1" as="geometry">
            <mxPoint x="580" y="92" as="sourcePoint" />
            <mxPoint x="110" y="120" as="targetPoint" />
            <Array as="points">
              <mxPoint x="610" y="60" />
              <mxPoint x="60" y="60" />
              <mxPoint x="60" y="170" />
            </Array>
          </mxGeometry>
        </mxCell>
        <mxCell id="QfcRt_3EZH4ZvAUpnSrQ-29" value="&lt;font style=&quot;font-size: 9px;&quot;&gt;Inventory Details&lt;/font&gt;" style="text;html=1;align=center;verticalAlign=middle;resizable=0;points=[];autosize=1;strokeColor=none;fillColor=none;rotation=0;" vertex="1" parent="1">
          <mxGeometry x="260" y="40" width="90" height="30" as="geometry" />
        </mxCell>
        <mxCell id="QfcRt_3EZH4ZvAUpnSrQ-30" value="" style="endArrow=classic;html=1;rounded=0;entryX=0;entryY=0.75;entryDx=0;entryDy=0;exitX=0.888;exitY=0.826;exitDx=0;exitDy=0;exitPerimeter=0;" edge="1" parent="1" source="QfcRt_3EZH4ZvAUpnSrQ-1" target="QfcRt_3EZH4ZvAUpnSrQ-2">
          <mxGeometry width="50" height="50" relative="1" as="geometry">
            <mxPoint x="609" y="402" as="sourcePoint" />
            <mxPoint x="90" y="430" as="targetPoint" />
            <Array as="points">
              <mxPoint x="609" y="300" />
              <mxPoint x="60" y="300" />
              <mxPoint x="60" y="190" />
            </Array>
          </mxGeometry>
        </mxCell>
        <mxCell id="QfcRt_3EZH4ZvAUpnSrQ-31" value="&lt;font size=&quot;1&quot;&gt;Battle Detail&lt;/font&gt;" style="text;html=1;align=center;verticalAlign=middle;resizable=0;points=[];autosize=1;strokeColor=none;fillColor=none;" vertex="1" parent="1">
          <mxGeometry x="267" y="280" width="80" height="30" as="geometry" />
        </mxCell>
      </root>
    </mxGraphModel>
  </diagram>
</mxfile>
